<svg width="24" height="24" viewBox="0 0 24 24" fill="none" xmlns="http://www.w3.org/2000/svg">
<path d="M18.5002 18.5C19.0402 18.5 19.5002 18.96 19.5002 19.5C19.5002 20.04 19.0402 20.5 18.5002 20.5H6.50022C5.96022 20.5 5.50022 20.04 5.50022 19.5C5.50022 18.96 5.96022 18.5 6.50022 18.5H18.5002ZM18.5002 17H6.50022C5.13022 17 4.00022 18.13 4.00022 19.5C4.00022 20.87 5.13022 22 6.50022 22H18.5002C19.8802 22 21.0002 20.88 21.0002 19.5C21.0002 18.12 19.8802 17 18.5002 17ZM21.0002 11H18.0002V7H13.0002L10.0002 11V16H22.0002L21.0002 11ZM11.5402 11L13.5002 8.5H16.0002V11H11.5402ZM9.76022 3.41L4.76022 2L2.00022 11.83C1.66022 13.11 2.41022 14.44 3.70022 14.8L4.86022 15.12L8.15022 12.29L4.27022 11.21L6.15022 4.46L8.94022 5.24C9.50022 5.53 10.7102 6.34 11.4702 7.37L12.5002 6H12.9402C11.6802 4.41 9.85022 3.46 9.76022 3.41Z" fill="black"/>
</svg>
